<?xml version="1.0" encoding="utf-8"?>
<svg viewBox="133.502 156.261 120.381 111.444" width="120.381" height="111.444" xmlns="http://www.w3.org/2000/svg">
  <path d="M 152.738 116.004 C 171.121 116.004 145.366 91.516 145.366 91.516 C 137.535 84.845 121.375 96.664 121.375 96.664 C 112.32 98.454 111.784 87.558 111.784 87.558 C 111.784 87.558 111.364 80.617 111.071 79.98 C 110.645 78.896 112.996 79.444 112.996 79.444 C 120.961 64.949 112.996 66.885 112.996 66.885 C 114.926 41.877 93.005 47.126 93.005 47.126 C 76.143 51.748 82.32 68.544 82.32 68.544 C 78.618 67.64 80.393 73.16 80.393 73.16 C 81.349 81.633 84.378 79.712 84.378 79.712 C 84.771 82.68 86.436 86.766 86.436 86.766 L 86.692 93.574 C 84.789 104.872 72.863 95.501 72.863 95.501 C 65.867 85.637 48.327 91.153 48.327 91.153 C 45.962 85.486 38.974 115.249 38.974 115.249 C 52.434 114.993 51.326 123.707 51.326 123.707 C 51.862 137.049 61.178 150.889 61.178 150.889 C 61.863 153.215 62.35 155.675 62.834 158.111 L 126.645 158.111 C 127.827 155.475 129.057 153.014 130.153 151.486 C 135.378 144.106 142.514 134.534 145.144 128.189 C 150.295 115.712 152.738 116.004 152.738 116.004 Z" style="fill: rgb(255, 255, 255);" transform="matrix(1, 0, 0, 1, 94.52832, 109.59391)"/>
</svg>