<?xml version="1.0" encoding="iso-8859-1"?>
<svg fill="#fff" height="800px" width="800px" version="1.1" id="Layer_1" xmlns="http://www.w3.org/2000/svg" xmlns:xlink="http://www.w3.org/1999/xlink"
	 viewBox="0 0 511.999 511.999" xml:space="preserve">
<g>
	<g>
		<path d="M388.155,194.312c-11.55-19.984-21.526-37.243-21.526-66.58c0-24.998,8.434-118.052,8.518-118.99
			c0.401-4.409-2.849-8.308-7.258-8.709c-4.409-0.4-8.307,2.849-8.708,7.258c-0.351,3.855-8.584,94.721-8.584,120.441
			c0,33.637,11.502,53.536,23.678,74.604c0.556,0.961,1.112,1.925,1.667,2.89H136.057c0.556-0.965,1.112-1.928,1.667-2.89
			c12.177-21.068,23.678-40.967,23.678-74.604c0-25.721-8.234-116.586-8.584-120.441c-0.401-4.409-4.315-7.66-8.708-7.258
			c-4.409,0.401-7.659,4.3-7.258,8.709c0.084,0.936,8.518,93.989,8.518,118.99c0,29.337-9.976,46.596-21.527,66.581
			c-13.959,24.15-29.779,51.524-29.779,104.441c0,36.017,5.813,81.885,17.274,136.331c8.51,40.429,17.152,70.796,17.238,71.098
			c1.006,3.521,4.216,5.816,7.705,5.816c0.73,0,1.471-0.1,2.206-0.311c4.256-1.216,6.722-5.653,5.506-9.911
			c-0.325-1.137-31.184-110.044-33.726-192.547c73.297,20.635,125.502,60.366,137.715,70.247V503.98
			c0,4.427,3.588,8.017,8.017,8.017c4.428,0,8.017-3.589,8.017-8.017V379.473c12.195-9.885,64.282-49.579,137.715-70.244
			c-2.542,82.469-33.4,191.411-33.726,192.548c-1.215,4.257,1.25,8.694,5.507,9.91c0.735,0.211,1.477,0.311,2.205,0.311
			c3.489,0,6.699-2.295,7.705-5.816c0.086-0.302,8.727-30.67,17.238-71.098c11.463-54.446,17.274-100.314,17.274-136.331
			C417.935,245.836,402.113,218.463,388.155,194.312z M255.999,365.317c-16.538-13.19-70.239-52.487-145.815-72.735
			c0.367-14.356,2.005-26.504,4.499-37.118H281.65c4.428,0,8.017-3.589,8.017-8.017c0-4.427-3.588-8.017-8.017-8.017H119.421
			c2.357-6.562,5.029-12.537,7.865-18.171h257.426c2.837,5.634,5.509,11.609,7.865,18.171h-25.416c-4.428,0-8.017,3.589-8.017,8.017
			c0,4.427,3.588,8.017,8.017,8.017h30.154c2.494,10.614,4.131,22.762,4.499,37.118
			C326.238,312.831,272.537,352.127,255.999,365.317z"/>
	</g>
</g>
<g>
	<g>
		<path d="M332.955,239.431h-17.099c-4.428,0-8.017,3.589-8.017,8.017c0,4.427,3.589,8.017,8.017,8.017h17.099
			c4.428,0,8.017-3.589,8.017-8.017C340.971,243.02,337.383,239.431,332.955,239.431z"/>
	</g>
</g>
<g>
	<g>
		<path d="M255.999,153.92c-4.428,0-8.017,3.589-8.017,8.017v8.551c0,4.427,3.589,8.017,8.017,8.017
			c4.428,0,8.017-3.589,8.017-8.017v-8.551C264.016,157.51,260.428,153.92,255.999,153.92z"/>
	</g>
</g>
<g>
	<g>
		<path d="M116.3,122.063L82.096,87.859c-3.132-3.131-8.207-3.131-11.338,0c-3.131,3.131-3.131,8.207,0,11.337l20.519,20.519H8.017
			c-4.428,0-8.017,3.589-8.017,8.017c0,4.427,3.588,8.017,8.017,8.017h83.259l-20.519,20.519c-3.131,3.131-3.131,8.207,0,11.337
			c1.566,1.565,3.618,2.348,5.669,2.348c2.051,0,4.103-0.782,5.669-2.348L116.3,133.4C119.431,130.27,119.431,125.194,116.3,122.063
			z"/>
	</g>
</g>
<g>
	<g>
		<path d="M503.981,119.716h-83.26l20.519-20.519c3.131-3.131,3.131-8.207,0-11.337c-3.132-3.131-8.207-3.131-11.338,0
			l-34.204,34.204c-3.131,3.131-3.131,8.207,0,11.337l34.204,34.204c1.566,1.565,3.618,2.348,5.669,2.348s4.103-0.782,5.669-2.348
			c3.131-3.131,3.131-8.207,0-11.337l-20.519-20.519h83.26c4.428,0,8.017-3.589,8.017-8.017
			C511.999,123.305,508.409,119.716,503.981,119.716z"/>
	</g>
</g>
</svg>